<?xml version="1.0" standalone="no"?>
<svg xmlns="http://www.w3.org/2000/svg" xmlns:xlink="http://www.w3.org/1999/xlink" width="351pt" height="198pt" viewBox="0.00 0.00 351.15 198.19">
<g id="graph0" class="graph" transform="translate(4,194.19000244140625) scale(1)" data-name="">
<polygon fill="white" stroke="none" points="-4,4 -4,-194.19 347.15,-194.19 347.15,4 -4,4" style=""/>
<!-- inic -->
<g id="node1" class="node" pointer-events="visible" data-name="inic">

<ellipse fill="black" stroke="black" cx="1.8" cy="-117.69" rx="1.8" ry="1.8" style=""/>
</g>
<!-- q0 -->
<g id="node2" class="node" pointer-events="visible" data-name="q0">

<ellipse fill="none" stroke="black" cx="61.29" cy="-117.69" rx="20.89" ry="20.89" style=""/>
<text text-anchor="middle" x="61.29" y="-113.49" font-family="Times,serif" font-size="14.00" style="">q0</text>
</g>
<!-- inic&#45;&gt;q0 -->
<g id="edge1" class="edge" data-name="inic-&gt;q0">

<path fill="none" stroke="black" d="M3.8,-117.69C7.01,-117.69 17.5,-117.69 28.59,-117.69" style=""/>
<polygon fill="black" stroke="black" points="28.57,-121.19 38.57,-117.69 28.57,-114.19 28.57,-121.19" style=""/>
</g>
<!-- q2 -->
<g id="node3" class="node" pointer-events="visible" data-name="q2">

<ellipse fill="none" stroke="black" cx="145.68" cy="-71.69" rx="20.89" ry="20.89" style=""/>
<text text-anchor="middle" x="145.68" y="-67.49" font-family="Times,serif" font-size="14.00" style="">q2</text>
</g>
<!-- q0&#45;&gt;q2 -->
<g id="edge6" class="edge" data-name="q0-&gt;q2">

<path fill="none" stroke="black" d="M80.17,-107.71C90.97,-101.68 104.95,-93.88 117.13,-87.07" style=""/>
<polygon fill="black" stroke="black" points="118.49,-90.32 125.52,-82.39 115.08,-84.21 118.49,-90.32" style=""/>
<text text-anchor="middle" x="103.49" y="-99.89" font-family="Times,serif" font-size="14.00" style="">b</text>
</g>
<!-- q1 -->
<g id="node4" class="node" pointer-events="visible" data-name="q1">

<ellipse fill="none" stroke="black" cx="234.07" cy="-130.69" rx="20.86" ry="20.86" style=""/>
<ellipse fill="none" stroke="black" cx="234.07" cy="-130.69" rx="24.89" ry="24.89" style=""/>
<text text-anchor="middle" x="234.07" y="-126.49" font-family="Times,serif" font-size="14.00" style="">q1</text>
</g>
<!-- q0&#45;&gt;q1 -->
<g id="edge5" class="edge" data-name="q0-&gt;q1">

<path fill="none" stroke="black" d="M81.48,-124.71C93.73,-128.82 110.07,-133.59 124.99,-135.69 149.2,-139.1 176.74,-137.75 197.95,-135.6" style=""/>
<polygon fill="black" stroke="black" points="198.29,-139.08 207.83,-134.48 197.5,-132.13 198.29,-139.08" style=""/>
<text text-anchor="middle" x="145.68" y="-141.89" font-family="Times,serif" font-size="14.00" style="">b</text>
</g>
<!-- q2&#45;&gt;q2 -->
<g id="edge3" class="edge" data-name="q2-&gt;q2">

<path fill="none" stroke="black" d="M138,-91.6C136.94,-101.53 139.5,-110.39 145.68,-110.39 149.25,-110.39 151.62,-107.43 152.77,-103.01" style=""/>
<polygon fill="black" stroke="black" points="156.26,-103.28 153.28,-93.11 149.27,-102.92 156.26,-103.28" style=""/>
<text text-anchor="middle" x="145.68" y="-114.59" font-family="Times,serif" font-size="14.00" style="">b</text>
</g>
<!-- q2&#45;&gt;q1 -->
<g id="edge2" class="edge" data-name="q2-&gt;q1">

<path fill="none" stroke="black" d="M159.95,-87.03C166.74,-94.24 175.44,-102.58 184.37,-108.69 189.23,-112.01 194.66,-115.04 200.09,-117.71" style=""/>
<polygon fill="black" stroke="black" points="198.45,-120.81 209,-121.77 201.35,-114.44 198.45,-120.81" style=""/>
<text text-anchor="middle" x="187.87" y="-115.89" font-family="Times,serif" font-size="14.00" style="">b</text>
</g>
<!-- q3 -->
<g id="node5" class="node" pointer-events="visible" data-name="q3">

<ellipse fill="none" stroke="black" cx="234.07" cy="-59.69" rx="20.89" ry="20.89" style=""/>
<text text-anchor="middle" x="234.07" y="-55.49" font-family="Times,serif" font-size="14.00" style="">q3</text>
</g>
<!-- q2&#45;&gt;q3 -->
<g id="edge4" class="edge" data-name="q2-&gt;q3">

<path fill="none" stroke="black" d="M163.62,-60.57C169.88,-57.07 177.2,-53.66 184.37,-51.89 190.25,-50.44 196.59,-50.39 202.7,-51.07" style=""/>
<polygon fill="black" stroke="black" points="202,-54.5 212.47,-52.84 203.25,-47.61 202,-54.5" style=""/>
<text text-anchor="middle" x="187.87" y="-55.89" font-family="Times,serif" font-size="14.00" style="">λ</text>
</g>
<!-- q1&#45;&gt;q2 -->
<g id="edge8" class="edge" data-name="q1-&gt;q2">

<path fill="none" stroke="black" d="M217.99,-111.72C210.66,-103.49 201.31,-94.31 191.37,-87.89 186.96,-85.05 181.99,-82.62 177,-80.57" style=""/>
<polygon fill="black" stroke="black" points="178.28,-77.31 167.69,-77.2 175.9,-83.89 178.28,-77.31" style=""/>
<text text-anchor="middle" x="187.87" y="-91.89" font-family="Times,serif" font-size="14.00" style="">a</text>
</g>
<!-- q1&#45;&gt;q1 -->
<g id="edge7" class="edge" data-name="q1-&gt;q1">

<path fill="none" stroke="black" d="M225.51,-154.4C224.81,-164.63 227.66,-173.39 234.07,-173.39 237.87,-173.39 240.42,-170.3 241.72,-165.65" style=""/>
<polygon fill="black" stroke="black" points="245.19,-166.16 242.5,-155.91 238.21,-165.6 245.19,-166.16" style=""/>
<text text-anchor="middle" x="234.07" y="-177.59" font-family="Times,serif" font-size="14.00" style="">a</text>
</g>
<!-- q4 -->
<g id="node6" class="node" pointer-events="visible" data-name="q4">

<ellipse fill="none" stroke="black" cx="322.45" cy="-20.69" rx="20.89" ry="20.89" style=""/>
<text text-anchor="middle" x="322.45" y="-16.49" font-family="Times,serif" font-size="14.00" style="">q4</text>
</g>
<!-- q3&#45;&gt;q4 -->
<g id="edge9" class="edge" data-name="q3-&gt;q4">

<path fill="none" stroke="black" d="M253.39,-51.42C264.76,-46.29 279.63,-39.57 292.57,-33.73" style=""/>
<polygon fill="black" stroke="black" points="293.81,-37.01 301.48,-29.71 290.93,-30.63 293.81,-37.01" style=""/>
<text text-anchor="middle" x="280.26" y="-43.89" font-family="Times,serif" font-size="14.00" style="">λ</text>
</g>
<!-- q4&#45;&gt;q2 -->
<g id="edge10" class="edge" data-name="q4-&gt;q2">

<path fill="none" stroke="black" d="M302.04,-14.4C279.05,-8.05 240.03,-0.77 209.37,-12.89 192.29,-19.65 177.14,-33.51 166.01,-46.07" style=""/>
<polygon fill="black" stroke="black" points="163.35,-43.8 159.62,-53.71 168.72,-48.29 163.35,-43.8" style=""/>
<text text-anchor="middle" x="234.07" y="-17.89" font-family="Times,serif" font-size="14.00" style="">a</text>
</g>
</g>
</svg>