<?xml version="1.0" standalone="no"?>
<svg xmlns="http://www.w3.org/2000/svg" xmlns:xlink="http://www.w3.org/1999/xlink" width="436pt" height="131pt" viewBox="0.00 0.00 435.53 131.19">
<g id="graph0" class="graph" transform="translate(4,127.19000244140625) scale(1)" data-name="">
<polygon fill="white" stroke="none" points="-4,4 -4,-127.19 431.53,-127.19 431.53,4 -4,4" style=""/>
<!-- inic -->
<g id="node1" class="node" pointer-events="visible" data-name="inic">

<ellipse fill="black" stroke="black" cx="1.8" cy="-20.69" rx="1.8" ry="1.8" style=""/>
</g>
<!-- q0 -->
<g id="node2" class="node" pointer-events="visible" data-name="q0">

<ellipse fill="none" stroke="black" cx="61.29" cy="-20.69" rx="20.89" ry="20.89" style=""/>
<text text-anchor="middle" x="61.29" y="-16.49" font-family="Times,serif" font-size="14.00" style="">q0</text>
</g>
<!-- inic&#45;&gt;q0 -->
<g id="edge1" class="edge" data-name="inic-&gt;q0">

<path fill="none" stroke="black" d="M3.8,-20.69C7.01,-20.69 17.5,-20.69 28.59,-20.69" style=""/>
<polygon fill="black" stroke="black" points="28.57,-24.19 38.57,-20.69 28.57,-17.19 28.57,-24.19" style=""/>
</g>
<!-- q1 -->
<g id="node3" class="node" pointer-events="visible" data-name="q1">

<ellipse fill="none" stroke="black" cx="149.68" cy="-63.69" rx="20.86" ry="20.86" style=""/>
<ellipse fill="none" stroke="black" cx="149.68" cy="-63.69" rx="24.89" ry="24.89" style=""/>
<text text-anchor="middle" x="149.68" y="-59.49" font-family="Times,serif" font-size="14.00" style="">q1</text>
</g>
<!-- q0&#45;&gt;q1 -->
<g id="edge2" class="edge" data-name="q0-&gt;q1">

<path fill="none" stroke="black" d="M80.61,-29.81C91.11,-35.04 104.58,-41.74 116.76,-47.8" style=""/>
<polygon fill="black" stroke="black" points="115.16,-50.92 125.67,-52.24 118.28,-44.65 115.16,-50.92" style=""/>
<text text-anchor="middle" x="103.49" y="-46.89" font-family="Times,serif" font-size="14.00" style="">b</text>
</g>
<!-- q2 -->
<g id="node4" class="node" pointer-events="visible" data-name="q2">

<ellipse fill="none" stroke="black" cx="238.07" cy="-37.69" rx="20.89" ry="20.89" style=""/>
<text text-anchor="middle" x="238.07" y="-33.49" font-family="Times,serif" font-size="14.00" style="">q2</text>
</g>
<!-- q0&#45;&gt;q2 -->
<g id="edge3" class="edge" data-name="q0-&gt;q2">

<path fill="none" stroke="black" d="M81.91,-16.31C104.43,-11.97 142.38,-6.79 174.37,-12.89 185.98,-15.11 198.18,-19.43 208.7,-23.85" style=""/>
<polygon fill="black" stroke="black" points="207.02,-26.94 217.58,-27.8 209.87,-20.54 207.02,-26.94" style=""/>
<text text-anchor="middle" x="149.68" y="-17.89" font-family="Times,serif" font-size="14.00" style="">λ,b</text>
</g>
<!-- q1&#45;&gt;q1 -->
<g id="edge4" class="edge" data-name="q1-&gt;q1">

<path fill="none" stroke="black" d="M141.12,-87.4C140.42,-97.63 143.27,-106.39 149.68,-106.39 153.48,-106.39 156.03,-103.3 157.33,-98.65" style=""/>
<polygon fill="black" stroke="black" points="160.8,-99.16 158.12,-88.91 153.83,-98.6 160.8,-99.16" style=""/>
<text text-anchor="middle" x="149.68" y="-110.59" font-family="Times,serif" font-size="14.00" style="">a</text>
</g>
<!-- q1&#45;&gt;q2 -->
<g id="edge5" class="edge" data-name="q1-&gt;q2">

<path fill="none" stroke="black" d="M174.77,-61.11C182.72,-59.9 191.53,-58.16 199.37,-55.69 202.49,-54.72 205.67,-53.53 208.8,-52.23" style=""/>
<polygon fill="black" stroke="black" points="210.05,-55.51 217.71,-48.18 207.15,-49.13 210.05,-55.51" style=""/>
<text text-anchor="middle" x="195.87" y="-61.89" font-family="Times,serif" font-size="14.00" style="">a</text>
</g>
<!-- q2&#45;&gt;q1 -->
<g id="edge6" class="edge" data-name="q2-&gt;q1">

<path fill="none" stroke="black" d="M217.12,-33.41C209.26,-32.5 200.24,-32.44 192.37,-34.89 187.52,-36.41 182.73,-38.71 178.22,-41.36" style=""/>
<polygon fill="black" stroke="black" points="176.55,-38.27 170.16,-46.72 180.43,-44.1 176.55,-38.27" style=""/>
<text text-anchor="middle" x="195.87" y="-39.89" font-family="Times,serif" font-size="14.00" style="">b</text>
</g>
<!-- q2&#45;&gt;q2 -->
<g id="edge7" class="edge" data-name="q2-&gt;q2">

<path fill="none" stroke="black" d="M230.39,-57.6C229.33,-67.53 231.89,-76.39 238.07,-76.39 241.64,-76.39 244,-73.43 245.16,-69.01" style=""/>
<polygon fill="black" stroke="black" points="248.65,-69.28 245.67,-59.11 241.66,-68.92 248.65,-69.28" style=""/>
<text text-anchor="middle" x="238.07" y="-80.59" font-family="Times,serif" font-size="14.00" style="">b</text>
</g>
<!-- q3 -->
<g id="node5" class="node" pointer-events="visible" data-name="q3">

<ellipse fill="none" stroke="black" cx="322.45" cy="-76.69" rx="20.89" ry="20.89" style=""/>
<text text-anchor="middle" x="322.45" y="-72.49" font-family="Times,serif" font-size="14.00" style="">q3</text>
</g>
<!-- q2&#45;&gt;q3 -->
<g id="edge8" class="edge" data-name="q2-&gt;q3">

<path fill="none" stroke="black" d="M257.35,-46.35C267.8,-51.3 281.14,-57.61 292.94,-63.2" style=""/>
<polygon fill="black" stroke="black" points="291.32,-66.3 301.85,-67.41 294.31,-59.97 291.32,-66.3" style=""/>
<text text-anchor="middle" x="280.26" y="-62.89" font-family="Times,serif" font-size="14.00" style="">λ</text>
</g>
<!-- q4 -->
<g id="node6" class="node" pointer-events="visible" data-name="q4">

<ellipse fill="none" stroke="black" cx="406.84" cy="-37.69" rx="20.89" ry="20.89" style=""/>
<text text-anchor="middle" x="406.84" y="-33.49" font-family="Times,serif" font-size="14.00" style="">q4</text>
</g>
<!-- q3&#45;&gt;q4 -->
<g id="edge9" class="edge" data-name="q3-&gt;q4">

<path fill="none" stroke="black" d="M341.74,-68.04C352.19,-63.09 365.53,-56.78 377.33,-51.19" style=""/>
<polygon fill="black" stroke="black" points="378.7,-54.41 386.24,-46.97 375.7,-48.09 378.7,-54.41" style=""/>
<text text-anchor="middle" x="364.65" y="-62.89" font-family="Times,serif" font-size="14.00" style="">λ</text>
</g>
<!-- q4&#45;&gt;q2 -->
<g id="edge10" class="edge" data-name="q4-&gt;q2">

<path fill="none" stroke="black" d="M385.85,-34.57C373.57,-32.8 357.49,-30.78 343.15,-29.89 324.79,-28.76 320.12,-28.76 301.76,-29.89 291.45,-30.53 280.25,-31.76 270.2,-33.05" style=""/>
<polygon fill="black" stroke="black" points="269.99,-29.54 260.55,-34.36 270.94,-36.48 269.99,-29.54" style=""/>
<text text-anchor="middle" x="322.45" y="-34.89" font-family="Times,serif" font-size="14.00" style="">a</text>
</g>
</g>
</svg>